<?xml version="1.0" standalone="no"?><!DOCTYPE svg PUBLIC "-//W3C//DTD SVG 1.1//EN" "http://www.w3.org/Graphics/SVG/1.1/DTD/svg11.dtd"><svg t="1616497092224" class="icon" viewBox="0 0 1024 1024" version="1.1" xmlns="http://www.w3.org/2000/svg" p-id="1213" xmlns:xlink="http://www.w3.org/1999/xlink" width="200" height="200"><defs><style type="text/css"></style></defs><path d="M943.688 535.978c0 238.456-193.206 431.694-431.7 431.694-238.486 0-431.692-193.238-431.692-431.694 0-238.486 193.206-431.692 431.692-431.692 238.494 0.002 431.7 193.206 431.7 431.692z" fill="#FFCE54" opacity=".5" p-id="1214"></path><path d="M887.728 535.978c0 207.384-168.194 375.702-375.74 375.702-207.556 0-375.732-168.316-375.732-375.702 0-207.406 168.176-375.732 375.732-375.732 207.548 0.002 375.74 168.326 375.74 375.732z" fill="#FFCE54" opacity=".4" p-id="1215"></path><path d="M831.768 535.978c0 176.438-143.118 319.74-319.78 319.74-176.672 0-319.772-143.302-319.772-319.74 0-176.458 143.1-319.772 319.772-319.772 176.662 0.002 319.78 143.314 319.78 319.772z" fill="#FFCE54" opacity=".6" p-id="1216"></path><path d="M647.898 927.7l-31.976 31.976h-207.86l-31.978-31.976v-111.92h271.814z" fill="#AAB2BD" p-id="1217"></path><path d="M408.062 815.78h-31.978v111.92l31.978 31.976h31.978l-31.978-31.976z" fill="#FFFFFF" opacity=".4" p-id="1218"></path><path d="M615.922 815.78h31.976v111.92l-31.976 31.976h-31.978l31.978-31.976z" opacity=".3" p-id="1219"></path><path d="M775.806 535.978c0-145.708-118.132-263.82-263.818-263.82-145.694 0-263.812 118.112-263.812 263.82 0 95.9 51.354 179.624 127.908 225.778v54.024h271.814v-54.024c76.54-46.154 127.908-129.878 127.908-225.778z" fill="#E6E9ED" p-id="1220"></path><path d="M511.988 272.16c5.402 0 10.696 0.446 15.996 0.804-138.208 8.306-247.832 122.702-247.832 263.016 0 142.304 95.93 225.778 95.93 225.778-76.554-46.154-127.908-129.876-127.908-225.778 0.002-145.71 118.12-263.82 263.814-263.82z" fill="#FFFFFF" p-id="1221"></path><path d="M512.004 272.16c-5.402 0-10.696 0.446-16.004 0.804 138.222 8.306 247.832 122.702 247.832 263.016 0 142.304-95.932 225.778-95.932 225.778 76.57-46.154 127.908-129.876 127.908-225.778-0.002-145.71-118.102-263.82-263.804-263.82z" fill="#FFFFFF" p-id="1222"></path><path d="M440.04 959.676s15.988 31.978 71.95 31.978c55.966 0 71.956-31.978 71.956-31.978H440.04z" fill="#656D78" p-id="1223"></path><path d="M472.016 959.676H440.04s15.988 31.978 71.95 31.978c5.776 0 11.04-0.406 15.988-1.032-43.002-5.308-55.962-30.946-55.962-30.946z" fill="#FFFFFF" opacity=".4" p-id="1224"></path><path d="M551.966 959.676h31.976s-15.988 31.978-71.956 31.978c-5.778 0-11.04-0.406-15.99-1.032 43.012-5.308 55.97-30.946 55.97-30.946z" opacity=".3" p-id="1225"></path><path d="M376.084 799.792h271.814v15.988H376.084z" opacity=".2" p-id="1226"></path><path d="M671.912 583.946c8.776 0 15.988-7.214 15.988-15.988v-47.974c0-8.792-7.212-15.988-15.988-15.988h-5.778c-8.774 0-17.58-4.552-19.516-10.118-1.938-5.566-3.53-24.482 2.684-30.696l4.03-4.03c6.214-6.214 6.214-16.394 0-22.608l-33.912-33.914c-6.214-6.214-16.394-6.214-22.61 0.008l-4.03 4.028c-6.212 6.222-15.614 9.25-20.89 6.73-5.246-2.522-19.924-14.778-19.924-23.57v-5.746c0-8.792-7.182-15.99-15.988-15.99H488.02c-8.79 0-15.99 7.198-15.99 15.99v5.746c0 8.792-4.558 17.574-10.118 19.518s-24.466 3.544-30.682-2.67l-4.028-4.028c-6.214-6.214-16.394-6.214-22.61 0l-33.914 33.928c-6.214 6.214-6.214 16.394 0 22.608l4.014 4.014c6.214 6.214 9.244 15.614 6.73 20.882-2.514 5.27-14.77 19.916-23.562 19.916h-5.762c-8.792 0-15.988 7.198-15.988 15.988l0.016 47.974c0 8.774 7.198 15.988 15.988 15.988h5.746c8.792 0 17.582 4.558 19.518 10.118 1.936 5.558 3.544 24.482-2.67 30.698l-4.03 4.028c-6.214 6.214-6.214 16.394 0 22.61l33.914 33.88c6.214 6.214 16.394 6.214 22.61 0l4.028-4.028c6.214-6.214 15.614-9.242 20.876-6.714 5.262 2.532 19.922 14.772 19.922 23.578v5.746c0 8.774 7.2 15.988 15.99 15.988h47.958c8.806 0 15.988-7.214 15.988-15.988v-5.746c0-8.806 4.558-17.582 10.118-19.518s24.454-3.56 30.666 2.654l4.06 4.058c6.214 6.214 16.394 6.214 22.61 0l33.912-33.944c6.214-6.214 6.214-16.394 0-22.61l-4.03-4.028c-6.212-6.214-9.242-15.616-6.744-20.862 2.53-5.278 14.802-19.922 23.576-19.922h5.78z" fill="#ED5565" p-id="1227"></path><path d="M420.584 685.278l-33.914-33.88c-6.214-6.214-6.214-16.394 0-22.61l4.028-4.028c6.214-6.214 4.606-25.138 2.67-30.698s-10.726-10.118-19.518-10.118h-5.746c-8.79 0-15.988-7.214-15.988-15.988l-0.016-47.974c0-8.792 7.198-15.988 15.988-15.988h5.762c8.792 0 21.048-14.646 23.562-19.916 2.514-5.27-0.514-14.668-6.73-20.882l-4.012-4.014c-6.214-6.214-6.214-16.394 0-22.608l33.914-33.928c0.968-0.976 2.17-1.522 3.31-2.194-6.122-3.6-14.052-3.044-19.298 2.194l-33.914 33.928c-6.214 6.214-6.214 16.394 0 22.608l4.014 4.014c6.214 6.214 9.244 15.614 6.73 20.882-2.514 5.27-14.77 19.916-23.562 19.916h-5.762c-8.792 0-15.988 7.198-15.988 15.988l0.016 47.974c0 8.774 7.198 15.988 15.988 15.988h5.746c8.792 0 17.582 4.558 19.518 10.118 1.936 5.558 3.544 24.482-2.67 30.698l-4.03 4.028c-6.214 6.214-6.214 16.394 0 22.61l33.914 33.88c5.246 5.248 13.178 5.808 19.298 2.188-1.14-0.658-2.342-1.22-3.31-2.188z" fill="#FFFFFF" opacity=".4" p-id="1228"></path><path d="M603.43 685.278l33.914-33.88c6.212-6.214 6.212-16.394 0-22.61l-4.03-4.028c-6.212-6.214-4.622-25.138-2.686-30.698 1.938-5.558 10.744-10.118 19.518-10.118h5.746c8.806 0 15.988-7.214 15.988-15.988l0.032-47.974c0-8.792-7.212-15.988-15.988-15.988h-5.778c-8.774 0-21.046-14.646-23.544-19.916-2.53-5.27 0.5-14.668 6.712-20.882l4.03-4.014c6.212-6.214 6.212-16.394 0-22.608l-33.914-33.928c-0.966-0.976-2.186-1.522-3.31-2.194 6.122-3.6 14.052-3.044 19.3 2.194l33.912 33.928c6.214 6.214 6.214 16.394 0 22.608l-4.03 4.014c-6.212 6.214-9.242 15.614-6.712 20.882 2.498 5.27 14.772 19.916 23.544 19.916h5.778c8.776 0 15.988 7.198 15.988 15.988l-0.032 47.974c0 8.774-7.182 15.988-15.988 15.988h-5.746c-8.774 0-17.58 4.558-19.516 10.118-1.938 5.558-3.53 24.482 2.684 30.698l4.03 4.028c6.214 6.214 6.214 16.394 0 22.61l-33.912 33.88c-5.248 5.248-13.18 5.808-19.3 2.188 1.124-0.658 2.342-1.22 3.31-2.188z" fill="#FFFFFF" opacity=".4" p-id="1229"></path><path d="M512.004 472.016c-39.738 0-71.95 32.212-71.95 71.956 0 39.722 32.21 71.95 71.95 71.95 39.744 0 71.94-32.226 71.94-71.95 0-39.744-32.196-71.956-71.94-71.956z m0 95.942c-13.242 0-23.984-10.742-23.984-23.984 0-13.24 10.742-23.99 23.984-23.99 13.24 0 23.974 10.75 23.974 23.99 0 13.24-10.734 23.984-23.974 23.984z" fill="#656D78" p-id="1230"></path><path d="M456.042 543.972c0-37.004 28.028-67.124 63.956-71.152-2.654-0.296-5.262-0.804-7.994-0.804-39.738 0-71.95 32.212-71.95 71.956 0 39.722 32.21 71.95 71.95 71.95 2.732 0 5.34-0.532 7.994-0.812-35.928-4.028-63.956-34.132-63.956-71.138z" fill="#FFFFFF" opacity=".2" p-id="1231"></path><path d="M567.956 543.972c0 37.006-28.042 67.11-63.962 71.136 2.656 0.312 5.262 0.812 7.996 0.812 39.728 0 71.956-32.226 71.956-71.95 0-39.744-32.226-71.956-71.956-71.956-2.732 0-5.34 0.514-7.996 0.812 35.918 4.016 63.962 34.134 63.962 71.146z" fill="#FFFFFF" opacity=".2" p-id="1232"></path><path d="M615.922 967.672H408.078a7.982 7.982 0 0 1-5.652-2.344l-31.978-31.976a7.988 7.988 0 0 1-2.342-5.652v-111.92a7.98 7.98 0 0 1 7.994-7.994h271.798a7.968 7.968 0 0 1 7.994 7.994v111.92a7.992 7.992 0 0 1-2.342 5.652l-31.976 31.976a7.99 7.99 0 0 1-5.652 2.344z m-204.534-15.99h201.224l27.292-27.292v-100.616H384.094v100.616l27.294 27.292z" fill="#3A3847" p-id="1233"></path><path d="M360.112 871.738a7.988 7.988 0 0 1-7.978-7.588c-0.234-4.402 3.154-8.15 7.556-8.4l303.792-15.988c4.466-0.312 8.182 3.154 8.4 7.558 0.218 4.402-3.152 8.18-7.556 8.398l-303.792 15.988c-0.142 0.032-0.282 0.032-0.422 0.032zM360.112 919.706a7.99 7.99 0 0 1-7.978-7.588c-0.234-4.404 3.154-8.15 7.556-8.4l303.792-15.988c4.466-0.438 8.182 3.154 8.4 7.556s-3.152 8.182-7.556 8.4l-303.792 15.988c-0.142 0.032-0.282 0.032-0.422 0.032zM647.898 823.774H376.1a8 8 0 0 1-7.994-7.994v-49.56c-80.192-50.122-127.908-135.872-127.908-230.242 0-149.884 121.928-271.814 271.806-271.814 149.884 0 271.796 121.928 271.796 271.814 0 94.402-47.714 180.122-127.908 230.242v49.558a7.99 7.99 0 0 1-7.994 7.996z m-263.804-15.988h255.81v-46.03c0-2.78 1.468-5.402 3.872-6.84 77.664-46.842 124.038-128.69 124.038-218.938 0-141.062-114.762-255.824-255.808-255.824-141.056 0-255.818 114.762-255.818 255.824 0 90.248 46.374 172.096 124.038 218.938a7.996 7.996 0 0 1 3.872 6.84v46.03zM512.004 999.648c-60.208 0-78.352-34.914-79.1-36.412a7.982 7.982 0 0 1 3.576-10.71c3.952-1.966 8.712-0.406 10.696 3.498 0.624 1.216 15.146 27.636 64.83 27.636 49.768 0 64.226-26.514 64.82-27.636 2.06-3.874 6.838-5.434 10.742-3.436s5.496 6.744 3.53 10.648c-0.752 1.498-18.894 36.412-79.094 36.412zM168.264 543.972H8.364a7.998 7.998 0 0 1-7.994-7.994 7.986 7.986 0 0 1 7.994-8.002h159.9a7.988 7.988 0 0 1 7.996 8.002 8 8 0 0 1-7.996 7.994zM855.75 543.972a7.988 7.988 0 0 1-7.994-7.994 8.01 8.01 0 0 1 7.994-7.994l159.886-0.008a7.996 7.996 0 0 1 0 15.996h-159.886zM75.846 795.792a7.976 7.976 0 0 1-6.916-3.996 7.992 7.992 0 0 1 2.92-10.93l138.496-79.944a7.968 7.968 0 0 1 10.914 2.936 7.956 7.956 0 0 1-2.92 10.898L79.846 794.7a7.806 7.806 0 0 1-4 1.092zM809.72 372.104a7.936 7.936 0 0 1-6.902-3.998 7.996 7.996 0 0 1 2.904-10.922l138.434-79.942a7.986 7.986 0 0 1 10.93 2.928 7.978 7.978 0 0 1-2.936 10.922l-138.434 79.942a7.904 7.904 0 0 1-3.996 1.07zM683.904 246.272a8.09 8.09 0 0 1-3.998-1.07 7.994 7.994 0 0 1-2.904-10.922l79.912-138.448c2.186-3.818 7.088-5.106 10.898-2.928a7.976 7.976 0 0 1 2.936 10.922l-79.912 138.448a8.002 8.002 0 0 1-6.932 3.998zM512.036 200.196a7.99 7.99 0 0 1-7.996-7.994V32.346a7.99 7.99 0 0 1 7.996-7.994 7.99 7.99 0 0 1 7.994 7.994v159.856a7.99 7.99 0 0 1-7.994 7.994zM340.158 246.24a7.956 7.956 0 0 1-6.916-3.998l-79.944-138.432a7.984 7.984 0 0 1 2.92-10.922 7.968 7.968 0 0 1 10.914 2.928l79.944 138.432a7.984 7.984 0 0 1-6.918 11.992zM948.184 795.762a7.886 7.886 0 0 1-3.996-1.092l-138.464-79.944a7.964 7.964 0 0 1-2.904-10.898c2.188-3.842 7.09-5.122 10.898-2.936l138.464 79.944a7.984 7.984 0 0 1 2.936 10.93 8.008 8.008 0 0 1-6.934 3.996zM214.34 372.042a8.008 8.008 0 0 1-3.998-1.07L71.88 291.06a7.986 7.986 0 0 1-2.92-10.922 8.02 8.02 0 0 1 10.914-2.928l138.464 79.912a7.984 7.984 0 0 1 2.92 10.922 7.982 7.982 0 0 1-6.918 3.998z" fill="#3A3847" p-id="1234"></path><path d="M512.004 623.916c-44.078 0-79.944-35.88-79.944-79.944 0-44.086 35.866-79.95 79.944-79.95 44.084 0 79.936 35.864 79.936 79.95 0 44.064-35.852 79.944-79.936 79.944z m0-143.904c-35.272 0-63.956 28.69-63.956 63.96 0 35.256 28.682 63.956 63.956 63.956 35.28 0 63.946-28.7 63.946-63.956 0-35.27-28.666-63.96-63.946-63.96z" fill="#3A3847" p-id="1235"></path><path d="M512.004 575.95c-17.628 0-31.978-14.364-31.978-31.976 0-17.634 14.348-31.984 31.978-31.984 17.634 0 31.968 14.35 31.968 31.984 0 17.612-14.334 31.976-31.968 31.976z m0-47.974a15.998 15.998 0 0 0-15.99 15.996c0 8.806 7.166 15.988 15.99 15.988s15.98-7.182 15.98-15.988c0-8.836-7.158-15.996-15.98-15.996z" fill="#3A3847" p-id="1236"></path><path d="M535.978 727.842H488.02c-13.226 0-23.984-10.774-23.984-23.982v-5.746c-0.032-3.624-10.118-13.834-15.394-16.394-3.794-0.126-8.292 1.716-11.758 5.184l-4.028 4.028c-9.024 9.026-24.888 9.026-33.914 0l-33.914-33.88a23.876 23.876 0 0 1-6.996-16.958c0-6.432 2.482-12.458 6.996-16.958l4.028-4.028c2.56-2.56 2.686-16.894 0.766-22.422-0.546-1.374-5.434-4.746-11.96-4.746h-5.746c-13.224 0-23.982-10.774-23.982-23.982l-0.016-47.974c0-13.224 10.758-23.982 23.982-23.982h5.762c3.544-0.032 13.896-10.236 16.348-15.364 0.546-1.358-0.562-7.19-5.168-11.788l-4.012-4.014c-9.352-9.352-9.352-24.56 0-33.914l33.914-33.928c9.026-9.026 24.888-9.026 33.914 0l4.028 4.028c0.532 0.538 3.748 2.07 11.196 2.07 5.122 0 9.712-0.774 11.196-1.296 1.374-0.546 4.762-5.426 4.762-11.968v-5.746c0-13.226 10.758-23.984 23.984-23.984h47.958c13.24 0 23.982 10.758 23.982 23.984v5.746c0.032 3.63 10.12 13.834 15.396 16.364 3.684-0.084 8.274-1.71 11.772-5.176l4.03-4.028c9.024-9.042 24.888-9.034 33.912-0.008l33.914 33.914c4.496 4.512 6.994 10.54 6.994 16.958s-2.498 12.444-6.994 16.956l-4.03 4.03c-2.558 2.56-2.714 16.894-0.78 22.42 0.56 1.366 5.434 4.748 11.958 4.748h5.778c13.21 0 23.984 10.758 23.984 23.982v47.974c0 13.208-10.774 23.982-23.984 23.982h-5.778c-3.622 0.032-13.832 10.118-16.364 15.394-0.532 1.342 0.594 7.15 5.184 11.742l4.03 4.028a23.944 23.944 0 0 1 6.994 16.958c0 6.434-2.498 12.458-6.994 16.958l-33.914 33.944c-9.024 9.026-24.888 9.026-33.912 0l-4.06-4.058c-0.53-0.532-3.716-2.06-11.18-2.06-5.122 0-9.71 0.78-11.208 1.31-1.344 0.532-4.748 5.402-4.748 11.96v5.746c-0.004 13.202-10.746 23.976-23.986 23.976z m-88.258-62.206c2.888 0 5.528 0.562 7.838 1.686 4.998 2.404 24.468 16.708 24.468 30.792v5.746a8.01 8.01 0 0 0 7.994 7.994h47.958a8.01 8.01 0 0 0 7.994-7.994v-5.746c0-12.336 6.65-23.982 15.458-27.074 3.842-1.312 10.306-2.188 16.488-2.188 10.462 0 18.02 2.282 22.484 6.746l4.06 4.06c2.996 2.998 8.304 2.998 11.304 0l33.912-33.946c1.498-1.498 2.31-3.498 2.31-5.652s-0.812-4.152-2.31-5.652l-4.03-4.028c-7.432-7.4-12.866-20.424-8.304-29.978 2.404-4.996 16.738-24.454 30.79-24.454h5.778a8.008 8.008 0 0 0 7.994-7.992v-47.974a8.004 8.004 0 0 0-7.994-7.994h-5.778c-12.366 0-23.982-6.66-27.074-15.49-1.78-5.192-5.34-29.034 4.59-38.972l4.03-4.03a7.918 7.918 0 0 0 2.31-5.652 7.918 7.918 0 0 0-2.31-5.652l-33.912-33.914c-3-2.974-8.308-2.99-11.304 0.008l-4.03 4.028c-8.494 8.502-21.64 12.32-29.978 8.284-4.996-2.38-24.482-16.69-24.482-30.774v-5.746a8.006 8.006 0 0 0-7.994-7.996h-47.96a8.004 8.004 0 0 0-7.994 7.996v5.746c0 12.342-6.652 23.976-15.474 27.068-3.794 1.326-10.258 2.186-16.472 2.186-10.446 0-18.018-2.272-22.5-6.754l-4.028-4.028c-2.998-2.998-8.306-2.998-11.304 0l-33.914 33.928a7.992 7.992 0 0 0 0 11.304l4.014 4.014c8.728 8.72 12.288 21.61 8.292 29.978-2.374 4.98-16.66 24.466-30.776 24.466h-5.762a8.006 8.006 0 0 0-7.994 7.994l0.016 47.974a8.008 8.008 0 0 0 7.994 7.992h5.746c12.35 0 23.998 6.652 27.074 15.49 1.874 5.402 5.496 28.884-4.574 38.972l-4.03 4.028c-1.498 1.5-2.31 3.498-2.31 5.652s0.812 4.154 2.31 5.652l33.914 33.882c2.998 2.998 8.306 2.998 11.304 0l4.028-4.03c6.136-6.116 14.63-9.956 22.14-9.956z" fill="#3A3847" p-id="1237"></path><path d="M400.084 551.966a8 8 0 0 1-7.994-7.994c0-66.132 53.79-119.922 119.916-119.922a7.99 7.99 0 0 1 7.994 7.994 7.99 7.99 0 0 1-7.994 7.994c-57.302 0-103.926 46.624-103.926 103.934a8.002 8.002 0 0 1-7.996 7.994zM512.004 663.886a8 8 0 0 1-7.996-7.994 7.98 7.98 0 0 1 7.996-7.994c57.294 0 103.918-46.624 103.918-103.926a7.99 7.99 0 0 1 7.994-7.994 7.97 7.97 0 0 1 7.994 7.994c0 66.11-53.776 119.914-119.906 119.914z" fill="#3A3847" p-id="1238"></path></svg>